<svg id="cellphone" xmlns="http://www.w3.org/2000/svg" width="25.419" height="47.66" viewBox="0 0 25.419 47.66">
  <g id="Group_42" data-name="Group 42" transform="translate(0)">
    <g id="Group_41" data-name="Group 41">
      <path id="Path_245" data-name="Path 245" d="M133.447,0H115.972A3.976,3.976,0,0,0,112,3.972V43.689a3.976,3.976,0,0,0,3.972,3.972h17.475a3.976,3.976,0,0,0,3.972-3.972V3.972A3.976,3.976,0,0,0,133.447,0ZM121.553,46.072h-5.581a2.383,2.383,0,0,1-2.383-2.383V41.306h7.964A3.892,3.892,0,0,0,121.553,46.072Zm3.157,0a2.383,2.383,0,1,1,2.383-2.383A2.383,2.383,0,0,1,124.709,46.072Zm11.121-2.383a2.383,2.383,0,0,1-2.383,2.383h-5.581a3.892,3.892,0,0,0,0-4.766h7.964Zm0-3.972H113.589V8.738H135.83Zm0-32.568H113.589V3.972a2.383,2.383,0,0,1,2.383-2.383h17.475a2.383,2.383,0,0,1,2.383,2.383Z" transform="translate(-112)"/>
    </g>
  </g>
  <g id="Group_44" data-name="Group 44" transform="translate(7.149 3.972)">
    <g id="Group_43" data-name="Group 43">
      <rect id="Rectangle_436" data-name="Rectangle 436" width="7.943" height="1.589"/>
    </g>
  </g>
  <g id="Group_46" data-name="Group 46" transform="translate(3.972 15.887)">
    <g id="Group_45" data-name="Group 45">
      <path id="Path_246" data-name="Path 246" d="M157.56,160h-3.177A2.383,2.383,0,0,0,152,162.383v3.177a2.383,2.383,0,0,0,2.383,2.383h3.177a2.383,2.383,0,0,0,2.383-2.383v-3.177A2.383,2.383,0,0,0,157.56,160Zm.794,5.56a.794.794,0,0,1-.794.794h-3.177a.794.794,0,0,1-.794-.794v-3.177a.794.794,0,0,1,.794-.794h3.177a.794.794,0,0,1,.794.794Z" transform="translate(-152 -160)"/>
    </g>
  </g>
  <g id="Group_48" data-name="Group 48" transform="translate(13.504 15.887)">
    <g id="Group_47" data-name="Group 47">
      <path id="Path_247" data-name="Path 247" d="M253.56,160h-3.177A2.383,2.383,0,0,0,248,162.383v3.177a2.383,2.383,0,0,0,2.383,2.383h3.177a2.383,2.383,0,0,0,2.383-2.383v-3.177A2.383,2.383,0,0,0,253.56,160Zm.794,5.56a.794.794,0,0,1-.794.794h-3.177a.794.794,0,0,1-.794-.794v-3.177a.794.794,0,0,1,.794-.794h3.177a.794.794,0,0,1,.794.794Z" transform="translate(-248 -160)"/>
    </g>
  </g>
  <g id="Group_50" data-name="Group 50" transform="translate(3.972 25.419)">
    <g id="Group_49" data-name="Group 49">
      <path id="Path_248" data-name="Path 248" d="M157.56,256h-3.177A2.383,2.383,0,0,0,152,258.383v3.177a2.383,2.383,0,0,0,2.383,2.383h3.177a2.383,2.383,0,0,0,2.383-2.383v-3.177A2.383,2.383,0,0,0,157.56,256Zm.794,5.56a.794.794,0,0,1-.794.794h-3.177a.794.794,0,0,1-.794-.794v-3.177a.794.794,0,0,1,.794-.794h3.177a.794.794,0,0,1,.794.794Z" transform="translate(-152 -256)"/>
    </g>
  </g>
  <g id="Group_52" data-name="Group 52" transform="translate(13.504 25.419)">
    <g id="Group_51" data-name="Group 51">
      <path id="Path_249" data-name="Path 249" d="M253.56,256h-3.177A2.383,2.383,0,0,0,248,258.383v3.177a2.383,2.383,0,0,0,2.383,2.383h3.177a2.383,2.383,0,0,0,2.383-2.383v-3.177A2.383,2.383,0,0,0,253.56,256Zm.794,5.56a.794.794,0,0,1-.794.794h-3.177a.794.794,0,0,1-.794-.794v-3.177a.794.794,0,0,1,.794-.794h3.177a.794.794,0,0,1,.794.794Z" transform="translate(-248 -256)"/>
    </g>
  </g>
  <g id="Group_54" data-name="Group 54" transform="translate(3.177 10.326)">
    <g id="Group_53" data-name="Group 53">
      <path id="Path_250" data-name="Path 250" d="M147.177,104h-2.383a.794.794,0,0,0-.794.794v2.383a.794.794,0,0,0,1.589,0v-1.589h1.589a.794.794,0,0,0,0-1.589Z" transform="translate(-144 -104)"/>
    </g>
  </g>
  <g id="Group_56" data-name="Group 56" transform="translate(8.738 10.326)">
    <g id="Group_55" data-name="Group 55">
      <path id="Path_251" data-name="Path 251" d="M202.383,104h-1.589a.794.794,0,0,0,0,1.589h1.589a.794.794,0,0,0,0-1.589Z" transform="translate(-200 -104)"/>
    </g>
  </g>
  <g id="Group_58" data-name="Group 58" transform="translate(16.681 3.972)">
    <g id="Group_57" data-name="Group 57">
      <rect id="Rectangle_437" data-name="Rectangle 437" width="1.589" height="1.589"/>
    </g>
  </g>
</svg>
