<svg xmlns="http://www.w3.org/2000/svg" width="37.795" height="40.75" viewBox="0 0 37.795 40.75">
  <path id="Path_234" data-name="Path 234" d="M37.133,9.7H26.715a9.447,9.447,0,0,0,1.264-1.035c2.414-2.422,2.493-6.093.951-7.635s-5.212-1.465-7.637.952A13.242,13.242,0,0,0,18.91,5.643a13.226,13.226,0,0,0-2.385-3.659C14.1-.431,10.433-.51,8.89,1.033s-1.463,5.214.951,7.636A9.488,9.488,0,0,0,11.105,9.7H.688a.675.675,0,0,0-.675.675v6.749a.675.675,0,0,0,.675.675h1.35V37.375A3.379,3.379,0,0,0,5.412,40.75h27a3.379,3.379,0,0,0,3.375-3.375V17.8h1.35a.675.675,0,0,0,.675-.675V10.378a.675.675,0,0,0-.675-.675ZM22.248,2.939c1.94-1.934,4.769-1.911,5.728-.952s.982,3.787-.952,5.727A11.3,11.3,0,0,1,24.03,9.7H20V9.66c0-.154-.012-.31-.026-.467-.006-.052-.012-.1-.017-.156q-.023-.194-.058-.387c-.007-.045-.015-.091-.023-.135-.032-.168-.068-.334-.108-.493-.005-.023-.012-.043-.017-.068-.036-.14-.073-.27-.111-.4l-.015-.057a12.868,12.868,0,0,1,2.627-4.553ZM21.61,16.453h-5.4v-5.4h5.4ZM10.8,7.715c-1.934-1.94-1.911-4.768-.952-5.728s3.787-.982,5.726.95a12.964,12.964,0,0,1,2.7,4.757c.076.237.135.464.19.685.015.063.028.125.042.187.037.165.066.322.088.473.007.051.017.1.023.154a4.363,4.363,0,0,1,.035.508H13.79A11.312,11.312,0,0,1,10.8,7.715ZM1.362,11.053h13.5v5.4H1.362ZM3.387,37.375V17.8H16.21V39.4H5.412a2.025,2.025,0,0,1-2.025-2.025ZM17.56,39.4V17.8h2.7V39.4Zm16.873-2.025A2.025,2.025,0,0,1,32.408,39.4H21.61V17.8H34.433Zm2.025-20.922H22.96v-5.4h13.5Zm0,0" transform="translate(-0.013 0.001)"/>
</svg>
