<svg id="idea" xmlns="http://www.w3.org/2000/svg" width="37.981" height="41.021" viewBox="0 0 37.981 41.021">
  <path id="Path_236" data-name="Path 236" d="M22.914,8a12.911,12.911,0,0,0-4.558,24.992V39.9a.759.759,0,0,0,.76.76h.76v1.519a.759.759,0,0,0,.76.76h4.558a.759.759,0,0,0,.76-.76V40.664h.76a.759.759,0,0,0,.76-.76V32.992A12.911,12.911,0,0,0,22.914,8Zm2.279,31.145a.759.759,0,0,0-.76.76v1.519H21.395V39.9a.759.759,0,0,0-.76-.76h-.76v-3.8h6.077v3.8Zm1.282-7.413a.76.76,0,0,0-.523.722v1.373H19.875V32.454a.759.759,0,0,0-.523-.722,11.395,11.395,0,1,1,7.122,0Z" transform="translate(-3.923 -1.923)"/>
  <path id="Path_237" data-name="Path 237" d="M26.76,4.558a.759.759,0,0,0,.76-.76V.76A.76.76,0,1,0,26,.76V3.8A.759.759,0,0,0,26.76,4.558Z" transform="translate(-7.769 0)"/>
  <path id="Path_238" data-name="Path 238" d="M49.8,24H46.76a.76.76,0,1,0,0,1.519H49.8A.76.76,0,0,0,49.8,24Z" transform="translate(-12.576 -5.769)"/>
  <path id="Path_239" data-name="Path 239" d="M5.8,24H2.76a.76.76,0,1,0,0,1.519H5.8A.76.76,0,1,0,5.8,24Z" transform="translate(-2 -5.769)"/>
  <path id="Path_240" data-name="Path 240" d="M42.514,7.252,40.366,9.4a.76.76,0,1,0,1.074,1.074l2.148-2.148a.76.76,0,0,0-1.074-1.074Z" transform="translate(-11.168 -1.69)"/>
  <path id="Path_241" data-name="Path 241" d="M11.4,38.366,9.252,40.514a.76.76,0,1,0,1.074,1.074l2.148-2.148A.76.76,0,1,0,11.4,38.366Z" transform="translate(-3.689 -9.168)"/>
  <path id="Path_242" data-name="Path 242" d="M41.44,38.366a.76.76,0,1,0-1.074,1.074l2.148,2.148a.76.76,0,0,0,1.074-1.074Z" transform="translate(-11.168 -9.168)"/>
  <path id="Path_243" data-name="Path 243" d="M11.4,10.474A.76.76,0,1,0,12.474,9.4L10.326,7.252A.76.76,0,0,0,9.252,8.326Z" transform="translate(-3.689 -1.689)"/>
  <path id="Path_244" data-name="Path 244" d="M24.116,13A9.126,9.126,0,0,0,15,22.116a.76.76,0,1,0,1.519,0,7.6,7.6,0,0,1,7.6-7.6.76.76,0,0,0,0-1.519Z" transform="translate(-5.125 -3.125)"/>
</svg>
