<svg xmlns="http://www.w3.org/2000/svg" width="58.877" height="35.419" viewBox="0 0 58.877 35.419">
  <path id="mortarboard" d="M58.361,12.852,29.794.078a.868.868,0,0,0-.711,0L17.5,5.257a.871.871,0,0,0,.712,1.59l11.226-5.02,10.277,4.6v6.415a35.712,35.712,0,0,0-10.253-2.152h-.049A35.984,35.984,0,0,0,17.961,13.3,29.687,29.687,0,0,0,11.5,16.9a.871.871,0,0,0-.3.415L3,13.647,14.489,8.511a.871.871,0,0,0-.711-1.59L.515,12.852a.871.871,0,0,0,0,1.59L11.148,19.2v4.171a.871.871,0,1,0,1.742,0V18.038a28.179,28.179,0,0,1,5.729-3.124,35.026,35.026,0,0,1,10.819-2.486A34.847,34.847,0,0,1,39.715,14.7v8.655a3.077,3.077,0,0,0-.3,5.8l-.609,1.6a32.546,32.546,0,0,0-9.365,2.805c-5.168-2.715-13.822-3.482-16.548-3.662V27.452a.871.871,0,1,0-1.742,0v3.266a.871.871,0,0,0,.833.87c.114,0,11.433.534,17.026,3.719a.87.87,0,0,0,.862,0,27.906,27.906,0,0,1,8.211-2.654l-.515,1.356a.871.871,0,0,0,.814,1.18h4.413a.871.871,0,0,0,.814-1.18l-.787-2.072c2.37-.271,4.056-.348,4.076-.349a.871.871,0,0,0,.833-.87V27.451a.871.871,0,1,0-1.742,0V29.9c-.813.055-2.164.163-3.805.361l-.421-1.108a3.077,3.077,0,0,0-.3-5.8V15.437a27.591,27.591,0,0,1,4.529,2.6v5.329a.871.871,0,1,0,1.742,0V19.2l10.633-4.755a.871.871,0,0,0,0-1.59ZM39.642,33.447l.944-2.484.944,2.484ZM41.921,26.3a1.335,1.335,0,1,1-1.335-1.335A1.336,1.336,0,0,1,41.921,26.3Zm5.758-8.995a.871.871,0,0,0-.3-.415,29.425,29.425,0,0,0-5.919-3.364V7.2l14.415,6.445Zm0,0" transform="translate(0 -0.002)"/>
</svg>
